<svg width="185" height="77" viewBox="0 0 185 77" fill="none" xmlns="http://www.w3.org/2000/svg">
<path d="M30.3788 68.5564H9.31539L9.31539 27.2075H0L0 76.3885H30.3788V68.5564Z" fill="#070562"/>
<path d="M30.3786 30.9982C19.8766 30.9982 13.7059 37.7622 13.7059 47.6116C13.7059 57.461 19.8766 64.2843 30.3786 64.2843C40.8214 64.2843 47.0514 57.461 47.0514 47.6116C47.0514 37.7622 40.8214 30.9982 30.3786 30.9982ZM30.3786 57.8763C25.9286 57.8763 23.2586 54.1976 23.2586 47.6116C23.2586 41.0255 25.9286 37.4062 30.3786 37.4062C34.7693 37.4062 37.4394 41.0255 37.4394 47.6116C37.4394 54.1976 34.7693 57.8763 30.3786 57.8763Z" fill="#070562"/>
<path d="M83.9143 31.8288L74.5989 31.8288V35.9822L72.5222 32.6595C70.9202 31.6508 67.7755 30.9982 65.1649 30.9982C57.0361 30.9982 50.0941 36.5755 50.0941 47.9083C50.0941 57.283 55.7901 63.3943 64.5715 63.3943C67.7755 63.3943 70.4456 62.623 72.2256 61.3177L74.5989 57.817V58.6476C74.5989 60.131 74.5396 61.4957 74.4802 62.623C74.2429 67.3104 71.2169 69.5057 66.6482 69.5057C62.7915 69.5057 60.2402 67.963 59.9435 65.4117L59.8842 64.8777H50.8655L50.9248 65.471C51.6368 72.5317 57.0955 76.3884 66.4109 76.3884C76.7349 76.3884 83.499 71.7011 83.855 61.555C83.9143 59.8343 83.9143 57.4016 83.9143 55.4436L83.9143 31.8288ZM67.0635 56.9863C62.6728 56.9863 59.6468 53.4263 59.6468 47.1962C59.6468 40.3135 62.8509 37.4062 67.3602 37.4062C70.8609 37.4062 74.5989 39.7795 74.5989 46.5436V47.1369C74.5989 54.3756 71.2762 56.9863 67.0635 56.9863Z" fill="#070562"/>
<path d="M138.092 63.4537H147.17C146.696 59.953 146.577 57.817 146.577 55.4436V45.8316C146.577 43.9922 146.518 42.2122 146.399 40.7289C145.924 35.0922 142.542 30.9982 133.168 30.9982C125.454 30.9982 119.343 35.0922 119.165 42.3309H128.065C128.302 39.1862 129.904 37.4062 132.812 37.4062C135.6 37.4062 137.024 38.9489 137.202 40.8475C137.321 41.9156 137.321 42.7462 137.321 43.5769V44.1109H135.304C124.149 44.1109 118.038 48.1456 118.038 55.0283C118.038 61.021 122.844 64.2843 128.184 64.2843C131.091 64.2843 133.761 63.6317 136.016 62.2077L137.44 58.8256L138.092 63.4537ZM131.862 57.8763C129.311 57.8763 127.59 56.6303 127.59 54.257C127.59 50.5783 131.566 49.1543 137.321 49.6289V51.9429C137.321 55.859 134.651 57.8763 131.862 57.8763Z" fill="#070562"/>
<path d="M170.997 30.9982C167.793 30.9982 164.649 31.7102 162.869 33.0748L160.495 36.5755V19.8434L151.18 19.8434V63.4537L160.495 63.4537V59.3003L162.572 62.623C164.174 63.6317 167.319 64.2843 169.929 64.2843C178.058 64.2843 185 58.351 185 46.9589C185 37.6435 179.719 30.9982 170.997 30.9982ZM167.734 57.8763C164.174 57.8763 160.495 55.503 160.495 48.6796V47.2556C160.495 40.0169 163.759 37.4062 168.031 37.4062C172.421 37.4062 175.447 41.3222 175.447 47.5523C175.447 54.435 172.243 57.8763 167.734 57.8763Z" fill="#070562"/>
<path d="M114.517 57.006L114.517 7.41626L105.201 7.41626L105.201 64.838L114.517 64.838V57.006Z" fill="#070562"/>
<path d="M75.3727 23.4897L89.8436 23.4897L89.8436 64.8386L99.1589 64.8386L99.1589 15.6576L75.3727 15.6576L75.3727 23.4897Z" fill="#FF8C19"/>
<circle cx="94.3247" cy="5.76855" r="5.76855" fill="#FF8C19"/>
</svg>
