<svg width="14" height="11" viewBox="0 0 14 11" fill="none" xmlns="http://www.w3.org/2000/svg">
<path d="M0 4C0 7.86597 3.13403 11 7 11C10.866 11 14 7.86597 14 4H13C13 7.31372 10.3137 10 7 10C3.68628 10 1 7.31372 1 4H0Z" fill="#070562"/>
<path d="M4 1C4 1.55228 3.55228 2 3 2C2.44772 2 2 1.55228 2 1C2 0.447715 2.44772 0 3 0C3.55228 0 4 0.447715 4 1Z" fill="#070562"/>
<path d="M12 1C12 1.55228 11.5523 2 11 2C10.4477 2 10 1.55228 10 1C10 0.447715 10.4477 0 11 0C11.5523 0 12 0.447715 12 1Z" fill="#070562"/>
</svg>
